<svg xmlns="http://www.w3.org/2000/svg" viewBox="0 0 230.049 90.706"><defs><style>.a{fill:#2c3638;stroke-linejoin:round;}.b,.c{stroke:none;}.c{fill:#fff;}</style></defs><g class="a" transform="translate(-295.13 -345.064)"><path class="b" d="M 511.9309387207031 434.2700805664062 C 511.9308166503906 434.2700805664062 511.9309387207031 434.2700805664062 511.9307861328125 434.2700805664062 C 509.9315185546875 434.2700500488281 507.968505859375 433.7940979003906 506.0962829589844 432.8554077148438 L 504.5498352050781 432.079833984375 L 297.5743713378906 349.4581298828125 L 298.5632019042969 346.6287536621094 L 512.6786499023438 411.1351623535156 L 512.716552734375 411.1466064453125 L 512.75390625 411.1600341796875 L 514.3538208007812 411.7358703613281 C 516.1609497070312 412.1642456054688 517.784912109375 412.9017333984375 519.1817626953125 413.9286193847656 C 520.58349609375 414.9590148925781 521.6886596679688 416.2283020019531 522.4666748046875 417.7011108398438 C 523.9286499023438 420.46875 524.0703735351562 423.6925048828125 522.8658447265625 426.7785034179688 C 521.972412109375 429.0670166015625 520.45654296875 430.9766235351562 518.4820556640625 432.3009643554688 C 516.5614624023438 433.589111328125 514.2959594726562 434.2700805664062 511.9309387207031 434.2700805664062 Z"/><path class="c" d="M 298.1304931640625 348.0649719238281 L 505.1650085449219 430.7102966308594 L 506.7685852050781 431.5144958496094 C 508.4677429199219 432.3664245605469 510.2300415039062 432.7700805664062 511.9308166503906 432.7700805664062 C 516.0731201171875 432.7700805664062 519.8511352539062 430.3760375976562 521.468505859375 426.2330932617188 C 523.7495727539062 420.3891906738281 520.3306884765625 414.6535949707031 513.9274291992188 413.1766052246094 L 512.2459106445312 412.5714111328125 L 298.1304931640625 348.0649719238281 M 298.1296997070312 345.0643005371094 C 298.4164428710938 345.0643005371094 298.707763671875 345.105712890625 298.995849609375 345.1925048828125 L 513.111328125 409.6989440917969 C 513.161865234375 409.7142028808594 513.2120971679688 409.7307739257812 513.2618408203125 409.7486877441406 L 514.7838134765625 410.2964477539062 C 516.75439453125 410.7744140625 518.5320434570312 411.5892639160156 520.0701904296875 412.7200317382812 C 521.6558837890625 413.8856506347656 522.908447265625 415.3258056640625 523.79296875 417.00048828125 C 525.461669921875 420.159423828125 525.628662109375 423.82568359375 524.26318359375 427.3239135742188 C 523.2578125 429.899169921875 521.5476684570312 432.0509338378906 519.3175659179688 433.5466613769531 C 517.14892578125 435.0012512207031 514.5946044921875 435.7700805664062 511.9308166503906 435.7700805664062 C 509.6960144042969 435.7700805664062 507.5067749023438 435.2405700683594 505.4239807128906 434.1962585449219 L 503.9342346191406 433.4491882324219 L 297.018310546875 350.8511962890625 C 295.5267333984375 350.2557983398438 294.7686157226562 348.5913391113281 295.2984619140625 347.0752258300781 C 295.72900390625 345.8432312011719 296.8860473632812 345.0643005371094 298.1296997070312 345.0643005371094 Z"/></g></svg>